<?xml version="1.0" standalone="no"?><!DOCTYPE svg PUBLIC "-//W3C//DTD SVG 1.1//EN" "http://www.w3.org/Graphics/SVG/1.1/DTD/svg11.dtd"><svg t="1620988856180" class="icon" viewBox="0 0 1024 1024" version="1.1" xmlns="http://www.w3.org/2000/svg" p-id="17806" xmlns:xlink="http://www.w3.org/1999/xlink" width="200" height="200"><defs><style type="text/css"></style></defs><path d="M512 185.6c-150.592 0-282.656 135.808-259.808 281.184 33.312 104.416 119.744 227.68 259.52 368.768 135.808-141.024 222.496-264.416 260.16-369.28C794.368 321.088 662.432 185.6 512 185.6z m315.04 297.44c-42.336 119.84-140.576 257.376-294.528 413.664a28.8 28.8 0 0 1-40.704 0.32v-0.032c-158.88-156.544-257.376-294.432-295.168-414.912l-0.928-3.904C165.216 295.104 326.848 128 512 128c185.152 0 346.784 167.104 316.288 350.176l-1.28 4.864z m-318.464 48a115.136 115.136 0 1 0 0-230.304 115.136 115.136 0 0 0 0 230.304z m0-57.6a57.6 57.6 0 1 1 0-115.136 57.6 57.6 0 0 1 0 115.136z" fill="#8a8a8a" p-id="17807"></path></svg>