<?xml version="1.0" standalone="no"?><!DOCTYPE svg PUBLIC "-//W3C//DTD SVG 1.1//EN" "http://www.w3.org/Graphics/SVG/1.1/DTD/svg11.dtd"><svg t="1621072358793" class="icon" viewBox="0 0 1024 1024" version="1.1" xmlns="http://www.w3.org/2000/svg" p-id="2522" xmlns:xlink="http://www.w3.org/1999/xlink" width="200" height="200"><defs><style type="text/css"></style></defs><path d="M513.124 274.743c-51.148 0-92.762 41.614-92.762 92.762 0 51.152 41.614 92.766 92.762 92.766 51.152 0 92.766-41.614 92.766-92.766 0-51.148-41.614-92.762-92.766-92.762z" fill="#4D4D4D" p-id="2523"></path><path d="M811.228 376.612c0-166.414-135.385-301.8-301.8-301.8s-301.8 135.385-301.8 301.8h0.634c-0.058 2.413-0.184 4.808-0.184 7.234 0 143.801 203.439 427.699 280.069 541.194l21.281 23.334 21.286-23.334c76.625-105.587 280.059-397.407 280.059-541.194 0-2.426-0.126-4.821-0.183-7.234h0.638zM509.427 518.963c-80.116 0-145.295-65.183-145.295-145.299s65.179-145.295 145.295-145.295 145.299 65.179 145.299 145.295-65.183 145.299-145.299 145.299z" fill="#505050" p-id="2524" data-spm-anchor-id="a313x.7781069.0.i9" class="selected"></path></svg>